<?xml version="1.0"?>
<svg xmlns="http://www.w3.org/2000/svg" id="Fill_Outline" data-name="Fill Outline" viewBox="0 0 64 64" width="512" height="512"><title>Forest-trees-foliage-natural</title><path d="M19,35V49a3,3,0,0,1-3-3V45H14v1a5.006,5.006,0,0,0,5,5V61h4V35Z" style="fill:#a3783b"/><path d="M48,45v3a3,3,0,0,1-3,3V35H41V61h4V53a5.006,5.006,0,0,0,5-5V45Z" style="fill:#a3783b"/><path d="M6.634,27.588A7.368,7.368,0,0,1,5,23a8.124,8.124,0,0,1,6.026-7.543c-.01-.152-.026-.3-.026-.457,0-4.418,4.029-8,9-8s9,3.582,9,8a8.124,8.124,0,0,1-6.026,7.543c.01.152.026.3.026.457a7.732,7.732,0,0,1-3.634,6.412A7.368,7.368,0,0,1,21,34c0,4.418-4.029,8-9,8s-9-3.582-9-8A7.732,7.732,0,0,1,6.634,27.588Z" style="fill:#b7c9ad"/><path d="M57.366,27.588A7.368,7.368,0,0,0,59,23a8.124,8.124,0,0,0-6.026-7.543c.01-.152.026-.3.026-.457,0-4.418-4.029-8-9-8s-9,3.582-9,8a8.124,8.124,0,0,0,6.026,7.543c-.01.152-.026.3-.026.457a7.732,7.732,0,0,0,3.634,6.412A7.368,7.368,0,0,0,43,34c0,4.418,4.029,8,9,8s9-3.582,9-8A7.732,7.732,0,0,0,57.366,27.588Z" style="fill:#b7c9ad"/><path d="M44,24.879A7.989,7.989,0,0,0,39.85,13.532a8,8,0,1,0-15.5.821,7.992,7.992,0,0,0-8.29,13A6.622,6.622,0,0,0,14,32c0,4.418,4.925,8,11,8a13.666,13.666,0,0,0,7-1.829A13.666,13.666,0,0,0,39,40c6.075,0,11-3.582,11-8C50,28.891,47.557,26.2,44,24.879Z" style="fill:#7a9b69"/><path d="M30,61V42h0a8,8,0,0,1-8-8V30h4v4a4,4,0,0,0,4,4h0V26h4V61Z" style="fill:#a3783b"/><path d="M25,30v4a5.006,5.006,0,0,0,5,5,1,1,0,0,0,1-1V26H29V36.829A3.006,3.006,0,0,1,27,34V30Z"/><path d="M13,22a8.965,8.965,0,0,0,1.749,5.317A7.358,7.358,0,0,0,13,32c0,3.449,2.549,6.54,6.651,8.065l.7-1.875C17.049,36.964,15,34.592,15,32a5.63,5.63,0,0,1,1.774-3.949,1,1,0,0,0,.031-1.372A6.994,6.994,0,0,1,24.058,15.31a1.015,1.015,0,0,0,1-.248,1,1,0,0,0,.249-1,7,7,0,1,1,13.559-.719,1,1,0,0,0,.625,1.126,6.989,6.989,0,0,1,3.628,9.927,1,1,0,0,0,.525,1.422C46.949,27.044,49,29.413,49,32c0,3.859-4.486,7-10,7a14.04,14.04,0,0,1-1.867-.123l-.266,1.982A16,16,0,0,0,39,41c6.617,0,12-4.037,12-9,0-3.153-2.139-6.009-5.652-7.64a8.986,8.986,0,0,0-4.4-11.438A8.685,8.685,0,0,0,41,12a9,9,0,0,0-18,0,9.172,9.172,0,0,0,.062,1.062A9.159,9.159,0,0,0,22,13,9.01,9.01,0,0,0,13,22Z"/><path d="M58.743,27.364A8.236,8.236,0,0,0,60,23a9.021,9.021,0,0,0-6-8.243C53.853,9.906,49.423,6,44,6a11.108,11.108,0,0,0-2.2.218l.4,1.961A9.079,9.079,0,0,1,44,8c4.411,0,8,3.141,8,7,0,.085-.007.168-.014.252l-.01.141a1,1,0,0,0,.7,1.019A7.136,7.136,0,0,1,58,23a6.362,6.362,0,0,1-1.419,3.968,1,1,0,0,0,.232,1.454A6.7,6.7,0,0,1,60,34c0,3.859-3.589,7-8,7a8.756,8.756,0,0,1-4.488-1.207l-1.024,1.719A10.772,10.772,0,0,0,52,43c5.514,0,10-4.037,10-9A8.657,8.657,0,0,0,58.743,27.364Z"/><path d="M46,52.9A5.009,5.009,0,0,0,50,48V45H48v3a3,3,0,0,1-2,2.816V43H44V60H42V43H40V60H35V26H33V60H31V42a1,1,0,0,0-1-1,7.008,7.008,0,0,1-7-7V30H21v4a9.012,9.012,0,0,0,8,8.944V60H24V43H22V60H20V43H18v5.816A3,3,0,0,1,16,46V45H14v1a5.009,5.009,0,0,0,4,4.9V60H6v2H62V60H46Z"/><path d="M2,34c0,4.963,4.486,9,10,9a10.772,10.772,0,0,0,5.512-1.488l-1.024-1.719A8.756,8.756,0,0,1,12,41c-4.411,0-8-3.141-8-7a6.7,6.7,0,0,1,3.187-5.578,1,1,0,0,0,.232-1.454A6.366,6.366,0,0,1,6,23a7.138,7.138,0,0,1,5.323-6.589,1,1,0,0,0,.7-1.019l-.01-.14C12.007,15.169,12,15.085,12,15c0-3.859,3.589-7,8-7a9.079,9.079,0,0,1,1.8.179l.4-1.961A11.108,11.108,0,0,0,20,6c-5.423,0-9.852,3.906-10,8.756A9.024,9.024,0,0,0,4,23a8.242,8.242,0,0,0,1.257,4.364A8.657,8.657,0,0,0,2,34Z"/><rect x="2" y="60" width="2" height="2"/></svg>
